<?xml version="1.0" standalone="no"?>
<!DOCTYPE svg PUBLIC "-//W3C//DTD SVG 20010904//EN"
 "http://www.w3.org/TR/2001/REC-SVG-20010904/DTD/svg10.dtd">
<svg version="1.0" xmlns="http://www.w3.org/2000/svg"
 width="570.000000pt" height="570.000000pt" viewBox="0 0 570.000000 570.000000"
 preserveAspectRatio="xMidYMid meet">
<metadata>
Created by potrace 1.16, written by Peter Selinger 2001-2019
</metadata>
<g transform="translate(0.000000,570.000000) scale(0.100000,-0.100000)"
fill="#000000" stroke="none">
<path d="M2747 4563 c-71 -107 -127 -197 -124 -199 2 -2 25 0 50 5 34 6 45 5
40 -3 -4 -6 -42 -67 -85 -135 -43 -69 -76 -131 -73 -139 3 -7 5 -38 5 -68 0
-30 3 -54 8 -54 4 1 36 37 72 81 36 45 68 83 73 85 9 6 -10 -37 -37 -86 -80
-145 -86 -160 -86 -230 0 -57 3 -70 18 -74 19 -7 59 -66 44 -66 -6 0 -12 7
-16 15 -3 8 -17 15 -32 15 l-26 0 21 -34 c12 -18 21 -42 21 -52 0 -17 -1 -17
-14 2 -13 17 -15 8 -15 -84 0 -56 2 -109 5 -117 3 -8 21 -24 40 -36 26 -16 43
-19 70 -14 22 4 41 2 50 -6 21 -17 17 -29 -10 -29 -13 0 -30 -7 -37 -16 -12
-15 -10 -19 11 -33 39 -25 70 -59 70 -76 0 -12 -4 -13 -17 -7 -26 13 -141 23
-148 13 -3 -5 7 -23 21 -40 l26 -31 -36 0 -36 0 1 -202 c1 -347 6 -360 134
-356 74 2 105 -9 105 -38 0 -18 -7 -17 -55 6 -38 17 -72 17 -44 -1 10 -6 3 -9
-20 -9 -64 0 -25 -9 61 -15 48 -2 89 -1 91 3 3 4 6 295 8 647 l4 640 -42 65
c-23 35 -40 66 -38 68 2 2 17 -4 34 -12 16 -9 32 -16 36 -16 3 0 5 70 5 156
l0 156 -77 79 c-42 44 -73 79 -69 79 3 0 34 -14 67 -31 34 -17 64 -27 68 -24
3 4 15 83 26 176 17 137 18 176 9 198 -7 16 -16 31 -21 34 -5 3 -66 -82 -136
-190z"/>
<path d="M2934 4548 c4 -67 8 -124 10 -126 2 -2 21 4 41 12 21 9 39 16 41 16
3 0 -16 -19 -41 -43 l-45 -44 0 -141 c0 -77 4 -143 8 -146 5 -3 30 31 56 74
26 44 49 80 51 80 2 0 -9 -31 -25 -70 -17 -38 -44 -102 -60 -141 l-30 -72 10
-311 c5 -171 15 -488 22 -703 l12 -393 168 0 168 0 0 38 c0 20 5 325 10 677
l9 640 -42 44 -42 43 44 -7 44 -7 -6 38 c-4 22 -7 51 -7 66 0 17 -13 43 -33
65 -65 75 -65 75 -19 59 22 -8 43 -12 46 -9 3 4 6 31 6 62 0 54 -1 56 -57 108
-32 29 -62 52 -66 50 -4 -1 -19 -22 -34 -46 l-26 -44 37 7 37 7 -38 -60 -37
-60 -31 47 c-17 26 -41 63 -53 83 l-22 36 47 -8 c25 -5 49 -7 51 -4 7 7 -191
305 -202 305 -5 0 -6 -51 -2 -122z"/>
<path d="M2145 4553 l-57 -87 17 -78 c10 -43 22 -78 26 -78 4 0 35 54 69 120
l61 120 -21 39 c-11 22 -24 42 -29 45 -4 3 -34 -33 -66 -81z"/>
<path d="M3270 4510 c-32 -49 -50 -84 -44 -89 11 -11 86 -32 92 -27 5 5 21
132 22 169 0 15 -3 27 -8 27 -4 0 -32 -36 -62 -80z"/>
<path d="M2240 4483 c-94 -245 -100 -267 -95 -376 2 -56 4 -109 5 -117 0 -8
22 6 53 36 91 87 106 96 65 39 -19 -27 -52 -75 -73 -105 l-37 -55 6 -124 c3
-68 7 -125 9 -127 1 -2 25 8 52 21 28 14 80 29 117 34 37 5 76 16 87 23 19 14
18 17 -44 92 -36 42 -65 79 -65 82 0 3 19 -8 42 -25 64 -48 72 -42 43 36 -14
36 -23 68 -21 70 2 2 23 -28 47 -66 24 -39 47 -70 52 -71 9 0 8 27 -2 157 l-9
103 -61 94 c-34 52 -61 97 -61 101 0 4 19 4 42 0 l41 -7 -19 29 c-81 127 -140
213 -145 213 -3 0 -16 -26 -29 -57z"/>
<path d="M3385 4433 c12 -150 16 -161 50 -123 14 16 26 19 53 14 l34 -7 -64
96 c-34 53 -67 97 -71 97 -5 0 -6 -35 -2 -77z"/>
<path d="M1626 4337 c-74 -111 -77 -123 -46 -231 l12 -38 21 19 c53 46 57 44
18 -11 l-41 -59 0 -144 c0 -78 2 -143 5 -143 4 0 19 7 36 15 l30 16 -35 -53
-35 -53 18 -375 c11 -233 22 -384 29 -397 20 -36 53 -53 106 -53 l49 0 -6 128
c-4 70 -10 320 -14 557 l-6 429 -40 43 -40 44 42 -7 42 -7 -6 89 c-16 249 -16
248 -41 292 -14 23 -26 42 -27 42 -1 0 -33 -47 -71 -103z"/>
<path d="M2027 4375 c-47 -69 -47 -79 -2 -71 19 4 35 4 35 -1 0 -5 -106 -173
-128 -203 -2 -3 -8 2 -12 10 -26 43 -28 44 -44 31 -8 -7 -29 -34 -46 -59 -30
-45 -31 -50 -26 -122 4 -41 15 -311 26 -600 11 -289 23 -535 25 -547 9 -39 25
-25 25 20 0 23 9 59 20 80 11 21 28 75 36 120 18 96 50 152 126 222 l51 47 -7
105 c-3 59 -6 198 -6 309 l0 204 -75 56 c-41 31 -75 58 -75 59 0 2 27 -6 61
-16 33 -10 66 -19 72 -19 9 0 10 51 2 209 -6 115 -13 212 -16 215 -3 3 -22
-19 -42 -49z"/>
<path d="M3646 4285 l-89 -135 -44 73 c-25 39 -47 74 -50 77 -2 3 -18 -10 -34
-28 -28 -31 -29 -36 -29 -132 0 -54 4 -101 8 -104 4 -2 34 19 67 47 l60 52
-24 -40 c-13 -22 -39 -68 -59 -103 l-35 -64 7 -191 c10 -305 36 -951 42 -1084
l6 -123 120 0 c65 0 128 5 139 10 16 9 19 22 19 90 0 92 3 89 -112 114 -68 15
-80 15 -112 2 -44 -18 -47 -7 -11 47 29 42 46 46 82 17 30 -24 100 -27 128 -6
18 13 19 25 16 158 -1 78 -5 145 -7 148 -11 10 -24 -27 -22 -60 4 -43 -22 -49
-36 -8 -8 23 -4 40 27 100 l36 73 -6 298 -6 298 -28 39 -29 39 29 -5 c37 -8
36 -12 57 272 12 167 13 227 5 243 -7 11 -15 21 -19 21 -4 0 -47 -61 -96 -135z"/>
<path d="M3790 4165 c0 -96 3 -175 6 -175 4 0 29 16 57 36 l50 36 -49 -61
c-27 -34 -54 -70 -61 -79 -10 -14 -9 -84 3 -327 8 -171 18 -325 20 -343 5 -32
6 -32 47 -26 56 9 67 19 67 66 0 31 4 40 23 47 12 5 27 7 32 6 6 -2 22 -6 38
-9 24 -6 27 -11 27 -49 0 -43 -18 -74 -56 -95 -13 -7 -14 -15 -5 -50 7 -23 16
-44 21 -47 19 -12 47 6 63 40 17 35 40 45 53 23 4 -6 -18 -35 -55 -71 l-62
-60 -23 22 c-18 17 -25 19 -33 9 -32 -41 -20 -79 42 -138 20 -19 43 -48 51
-63 20 -37 28 -151 16 -205 -9 -38 -8 -46 11 -67 12 -13 34 -27 48 -30 l26 -6
6 263 c4 145 7 372 7 505 l0 243 -66 70 c-37 38 -62 70 -56 70 5 0 35 -11 66
-25 41 -18 58 -22 60 -13 6 21 66 500 68 540 1 40 -26 93 -43 82 -9 -5 -131
-186 -193 -283 -7 -11 -2 -13 28 -8 20 3 36 3 36 -1 0 -4 -11 -24 -24 -46
l-23 -38 -20 28 c-11 16 -45 67 -75 114 l-54 85 40 -4 40 -3 -16 23 c-9 13
-40 61 -70 106 -29 45 -56 82 -60 83 -5 0 -8 -79 -8 -175z"/>
<path d="M1763 4298 c3 -18 11 -68 18 -110 7 -45 17 -78 23 -78 7 0 27 12 45
28 l32 27 -53 82 c-29 46 -57 83 -62 83 -4 0 -6 -15 -3 -32z"/>
<path d="M4249 4194 c-1 -10 -3 -30 -4 -44 -9 -83 -16 -560 -9 -560 5 0 29 14
54 30 25 16 49 30 53 30 4 0 -20 -37 -54 -82 l-62 -81 1 -101 c6 -339 26 -833
35 -844 7 -9 40 -12 121 -10 l111 3 3 280 c4 369 4 366 -64 449 l-54 66 51
-20 c53 -21 69 -20 69 8 0 9 9 67 21 128 23 117 21 147 -10 185 l-19 24 -19
-24 -19 -23 -25 38 c-14 22 -31 49 -38 62 -12 22 -12 22 45 16 l58 -7 -28 47
c-15 26 -52 86 -82 134 -30 47 -54 89 -54 92 0 4 14 5 30 2 17 -2 30 0 30 5 0
20 -140 215 -141 197z"/>
<path d="M1467 4100 l-68 -102 43 7 c24 3 51 9 61 12 18 5 11 -8 -125 -224
-22 -35 -43 -63 -46 -63 -4 0 -20 20 -36 45 -31 50 -43 49 -72 -6 -13 -26 -11
-49 16 -230 16 -111 30 -203 30 -205 0 -3 13 2 29 11 l30 15 -27 -58 c-24 -53
-26 -71 -33 -242 -4 -102 -8 -261 -10 -355 l-4 -170 144 -3 c90 -2 148 1 156
8 10 8 12 42 8 138 -3 70 -7 128 -8 130 -1 1 -37 -14 -79 -34 -65 -31 -84 -36
-123 -31 -55 6 -78 29 -62 59 11 20 11 20 25 -1 17 -23 44 -28 44 -8 0 6 -4
27 -9 45 -11 35 -2 42 16 13 30 -48 94 -43 161 13 l32 28 0 308 c0 194 -4 319
-11 337 -5 15 -28 49 -50 76 -44 51 -43 55 2 31 17 -8 33 -14 35 -11 2 2 3
131 2 287 l-3 283 -68 -103z"/>
<path d="M1057 3519 c-71 -105 -126 -193 -124 -195 2 -3 27 1 56 7 28 6 55 9
60 7 4 -2 -55 -103 -132 -226 -76 -123 -138 -224 -136 -226 2 -2 45 2 94 9 50
7 91 11 93 10 2 -2 -49 -82 -112 -180 -64 -97 -116 -179 -116 -183 0 -7 412
-4 418 3 5 4 23 321 25 440 2 94 0 103 -25 142 -16 24 -28 45 -28 47 0 3 16
-4 35 -15 l35 -21 0 286 c0 157 -3 286 -7 286 -5 -1 -66 -87 -136 -191z"/>
<path d="M2403 3670 c-79 -16 -143 -66 -143 -112 0 -11 31 -52 70 -92 38 -39
80 -87 93 -106 12 -19 30 -36 40 -38 16 -3 17 12 17 171 0 150 -2 176 -16 181
-9 3 -16 6 -17 5 -1 -1 -21 -5 -44 -9z"/>
<path d="M2178 3503 c2 -38 7 -86 11 -108 l7 -40 33 33 c27 27 32 37 26 60 -7
30 -63 122 -74 122 -4 0 -5 -30 -3 -67z"/>
<path d="M4580 3316 l0 -208 25 4 c30 6 31 5 3 -32 -22 -30 -22 -31 -11 -279
6 -137 13 -253 17 -259 4 -7 59 -9 169 -6 89 3 163 7 164 8 2 1 -42 71 -98
155 -55 84 -98 155 -96 158 3 2 34 -1 70 -7 36 -7 72 -10 81 -8 13 3 -81 163
-219 372 -19 28 -19 29 0 23 39 -10 95 -18 95 -12 0 6 -177 274 -191 290 -5 5
-9 -80 -9 -199z"/>
<path d="M2213 3118 c-5 -7 -7 -39 -5 -71 4 -53 6 -59 35 -74 50 -25 71 -44
131 -119 44 -54 56 -75 54 -99 -3 -34 -20 -40 -130 -50 l-68 -7 0 -37 c0 -21
3 -59 6 -85 l7 -46 104 0 c84 0 105 3 110 16 3 8 6 113 7 232 1 217 1 217 -26
274 -15 31 -35 61 -45 66 -30 15 -168 15 -180 0z"/>
<path d="M3850 2861 c-11 -21 -12 -155 -1 -261 l6 -65 59 3 c33 1 61 4 63 6 2
2 7 51 10 109 7 129 -1 155 -66 197 -56 35 -57 36 -71 11z"/>
<path d="M1635 2678 c4 -68 8 -129 11 -136 3 -9 23 -12 71 -10 l68 3 0 95 0
95 -70 37 c-38 21 -74 38 -78 38 -5 0 -5 -55 -2 -122z"/>
<path d="M1980 2664 c-28 -26 -50 -55 -50 -65 0 -11 -9 -28 -20 -39 -11 -11
-20 -22 -20 -25 0 -7 195 -6 214 1 13 5 16 22 16 84 0 85 -4 90 -61 90 -22 0
-44 -13 -79 -46z"/>
<path d="M1860 2670 c0 -13 7 -20 20 -20 23 0 26 10 8 28 -18 18 -28 15 -28
-8z"/>
<path d="M737 2473 c-4 -3 -7 -19 -7 -35 0 -36 20 -45 124 -53 l78 -7 -34 -28
c-44 -37 -87 -117 -95 -178 -12 -102 49 -217 141 -264 31 -17 58 -22 111 -21
l71 1 22 -62 c20 -54 21 -62 7 -72 -8 -6 -15 -16 -15 -23 0 -17 49 -33 80 -26
23 5 29 2 40 -24 15 -38 8 -57 -30 -79 -16 -9 -31 -21 -33 -27 -8 -21 6 -255
14 -255 5 0 28 12 50 26 23 14 42 24 42 22 23 -46 37 -65 59 -78 25 -13 29
-13 57 8 59 43 127 17 177 -68 l33 -55 -28 -30 c-16 -17 -33 -53 -41 -84 l-13
-55 33 -27 c48 -41 76 -44 120 -15 41 27 70 78 70 124 0 23 14 43 59 90 51 51
62 58 77 48 15 -11 14 -14 -9 -28 -15 -11 -28 -33 -36 -62 -17 -70 -14 -95 18
-127 77 -76 168 20 115 122 -14 27 -14 33 -1 47 67 77 114 380 72 463 -9 16
-20 61 -24 99 -5 39 -14 77 -20 84 -6 8 -32 19 -56 26 -55 15 -58 30 -6 30 90
0 171 49 216 131 54 99 36 233 -41 315 l-29 31 90 -1 c50 0 187 1 305 4 119 2
221 1 227 -3 8 -5 2 -23 -19 -58 -92 -148 26 -352 189 -326 30 5 33 3 43 -31
21 -75 23 -107 6 -121 -11 -10 -13 -18 -6 -31 6 -10 15 -53 21 -95 14 -90 47
-134 102 -136 63 -1 108 -27 170 -97 42 -47 43 -63 6 -72 -22 -5 -24 -11 -27
-77 -3 -87 14 -113 76 -113 45 0 62 14 62 52 0 20 7 31 23 38 l22 9 -22 7
c-28 8 -30 30 -3 44 14 8 25 7 39 -1 16 -11 25 -8 59 19 76 61 127 150 115
202 -7 33 -32 60 -53 60 -12 0 -20 11 -24 34 -4 18 -20 53 -36 77 -21 31 -25
46 -17 51 22 14 76 8 116 -13 32 -16 44 -18 60 -9 33 17 25 47 -19 78 -37 26
-39 30 -40 80 l0 52 33 0 c22 0 41 -8 53 -21 10 -12 39 -33 64 -47 37 -22 57
-27 115 -27 l70 0 22 -82 c21 -81 21 -83 2 -83 -23 0 -24 -12 -4 -76 8 -27 15
-63 15 -80 0 -40 22 -59 66 -56 28 2 36 -2 49 -28 8 -16 20 -30 25 -30 6 0 37
-28 69 -62 57 -59 59 -64 57 -108 -2 -31 -10 -57 -25 -76 -20 -25 -22 -36 -16
-87 7 -55 5 -60 -21 -89 l-29 -31 39 7 c29 6 43 3 57 -10 24 -21 78 -12 107
19 19 20 46 119 54 202 3 27 9 32 61 48 40 13 63 27 74 45 10 15 36 48 59 74
96 109 99 205 7 233 -16 4 -23 14 -23 31 0 32 -16 64 -44 86 l-21 17 33 12
c22 7 32 17 30 28 -3 12 -14 16 -48 14 l-45 -2 -17 52 c-15 47 -15 54 -1 69
28 31 49 30 104 -4 155 -97 349 23 349 217 0 75 -20 125 -72 179 -27 28 -48
50 -48 51 0 1 13 0 29 -3 35 -5 152 24 163 41 4 7 6 23 4 37 -3 14 -5 28 -5
33 -1 9 -4215 10 -4224 0z m3784 -99 l38 -6 -42 -32 c-50 -37 -97 -123 -97
-178 0 -21 -4 -38 -9 -38 -5 0 -7 8 -5 18 5 21 -2 32 -45 62 -19 13 -29 26
-23 28 22 7 12 29 -18 42 -25 10 -34 10 -55 -4 -32 -21 -32 -36 1 -67 26 -25
27 -30 7 -106 -7 -26 -34 -50 -155 -137 -141 -102 -168 -117 -168 -97 0 5 -3
16 -6 25 -4 9 11 33 40 64 25 27 53 66 62 87 36 88 7 224 -62 285 l-34 29 38
10 c100 27 403 35 533 15z m-2885 -21 c61 -13 86 -14 128 -6 28 6 53 9 55 7 2
-2 -12 -21 -32 -43 -35 -39 -67 -119 -67 -169 0 -29 -24 -25 -28 5 -2 12 -14
33 -27 47 -31 33 -74 34 -112 2 -16 -13 -49 -28 -73 -33 -54 -10 -58 -29 -13
-59 30 -20 31 -23 16 -35 -9 -8 -40 -44 -70 -81 -88 -111 -136 -145 -168 -118
-30 25 -27 76 7 141 29 54 33 72 32 133 0 74 -13 110 -61 174 -13 17 -23 33
-21 33 4 2 233 15 300 17 32 1 92 -6 134 -15z m1794 -20 c-15 -17 -35 -54 -45
-82 -16 -49 -35 -68 -35 -36 0 9 -10 29 -22 45 -23 32 -57 39 -80 17 -7 -7
-28 -17 -47 -23 -39 -11 -54 -34 -22 -34 12 0 38 -7 57 -15 30 -12 35 -19 32
-42 -2 -22 -29 -45 -138 -125 -74 -53 -138 -98 -142 -98 -21 0 -5 59 23 91 43
46 59 89 59 151 0 59 -25 122 -59 153 -21 18 -21 20 -4 27 10 4 115 7 234 5
l217 -2 -28 -32z m-2281 -31 c69 -54 96 -143 70 -223 -22 -64 -28 -65 -87 -7
-29 29 -58 63 -63 76 -10 26 -34 29 -48 5 -7 -13 -5 -23 7 -36 8 -10 28 -49
43 -88 32 -81 29 -84 -51 -77 -86 9 -147 75 -158 174 -8 77 43 169 113 201 48
22 130 10 174 -25z m912 3 c103 -67 118 -219 30 -306 -34 -35 -114 -70 -127
-56 -4 3 12 27 35 53 22 26 41 50 41 54 0 3 -11 17 -25 30 -20 18 -24 31 -20
50 8 36 -18 59 -46 42 -16 -10 -28 -8 -69 13 -58 29 -71 20 -41 -31 l21 -35
-37 3 c-44 3 -49 17 -34 75 33 121 171 175 272 108z m884 10 c72 -42 95 -134
52 -210 -36 -63 -50 -57 -72 32 -18 71 -22 78 -45 78 -21 0 -25 -5 -25 -30 0
-23 5 -31 22 -33 25 -4 29 -12 39 -77 l7 -48 -57 5 c-91 8 -142 70 -134 163
10 120 114 179 213 120z m680 13 c28 -13 32 -30 10 -48 -8 -7 -20 -30 -27 -51
-11 -37 -12 -38 -29 -23 -15 14 -21 14 -34 4 -8 -7 -15 -22 -15 -34 0 -20 -65
-95 -73 -85 -29 32 -36 123 -13 167 16 30 53 66 76 75 26 10 78 7 105 -5z
m270 -17 c121 -54 151 -210 61 -309 -30 -32 -34 -34 -39 -16 -3 10 -15 51 -26
90 -17 56 -26 73 -43 77 -26 7 -48 -8 -48 -34 0 -11 10 -21 25 -25 25 -6 34
-26 51 -111 5 -26 3 -32 -16 -38 -46 -15 -150 24 -164 61 -4 9 5 29 20 47 14
17 30 42 36 56 13 35 12 119 -2 155 -16 44 5 61 80 64 14 1 43 -7 65 -17z
m845 -6 c38 -20 76 -77 88 -132 32 -144 -101 -269 -233 -219 -74 29 -74 37 9
100 81 62 91 76 73 100 -11 15 -18 15 -72 2 -128 -31 -125 -31 -125 4 0 62 51
130 121 160 30 12 100 5 139 -15z m-1033 -138 c-4 -48 -31 -92 -49 -80 -16 9
-4 118 17 149 l18 28 9 -25 c5 -13 8 -45 5 -72z m-2066 13 c11 -6 19 -21 19
-36 0 -14 -4 -22 -10 -19 -5 3 -10 15 -10 26 0 27 -44 25 -64 -3 l-16 -22 0
21 c0 36 43 53 81 33z m1963 -125 c4 -11 -13 -25 -30 -25 -7 0 -4 116 4 124 4
4 10 -13 14 -39 4 -26 9 -53 12 -60z m-54 40 c0 -46 -3 -55 -17 -55 -10 0 -27
7 -37 15 -18 14 -18 16 15 54 19 22 35 40 37 40 1 1 2 -24 2 -54z m-137 -58
c-3 -5 -10 -2 -15 7 -8 14 -13 15 -24 5 -11 -9 -17 -5 -28 22 -11 25 -11 35
-3 38 7 2 16 10 20 18 6 10 15 1 32 -33 13 -26 21 -52 18 -57z m1203 64 c-30
-34 -95 -74 -109 -68 -15 6 -32 55 -22 65 6 7 77 19 119 21 28 1 28 0 12 -18z
m-1384 -95 l-30 -63 -103 -26 c-57 -14 -105 -24 -107 -22 -1 1 57 45 130 97
73 52 135 91 136 86 2 -4 -10 -37 -26 -72z m1194 67 c3 -10 13 -35 22 -56 16
-38 15 -39 -8 -57 -14 -10 -27 -17 -31 -14 -3 2 -12 24 -19 49 -10 35 -10 52
-2 70 13 29 30 32 38 8z m-2571 -18 c-35 -29 -43 -31 -52 -9 -8 20 13 34 52
33 l30 0 -30 -24z m-695 -62 c0 -7 -2 -13 -4 -13 -2 0 -11 -3 -19 -6 -11 -4
-19 8 -31 42 -21 63 -21 63 19 24 19 -19 35 -40 35 -47z m341 -43 c-6 -45 -13
-86 -16 -90 -6 -10 -59 -3 -88 12 -17 9 -16 12 9 46 57 77 96 123 101 118 3
-3 0 -41 -6 -86z m1975 55 c26 -14 53 -25 60 -25 10 0 14 -15 14 -50 l0 -50
-48 0 c-26 0 -62 -4 -79 -9 -18 -5 -35 -6 -38 -1 -9 15 7 40 25 40 32 0 43 25
26 59 -15 29 -21 61 -12 61 3 0 26 -11 52 -25z m-1561 -15 c-15 -16 -33 -26
-38 -23 -6 3 3 17 19 30 41 33 53 29 19 -7z m1423 -2 c2 -9 -4 -18 -13 -21
-11 -5 -15 0 -15 19 0 28 23 29 28 2z m887 -28 c3 -5 -5 -31 -17 -57 -23 -46
-24 -47 -130 -85 -143 -50 -142 -33 5 72 112 79 130 89 142 70z m-3032 -43
c12 -31 19 -127 10 -127 -6 0 -20 25 -32 56 -16 43 -19 60 -10 70 14 18 25 18
32 1z m597 -22 c-35 -26 -51 -30 -64 -18 -9 9 52 42 78 43 16 0 12 -5 -14 -25z
m1380 -13 c-13 -9 -33 -25 -43 -35 -23 -23 -16 -32 80 -104 78 -58 88 -68 73
-78 -5 -3 -10 -18 -10 -33 0 -47 -12 -56 -56 -42 -22 7 -61 26 -89 43 -34 21
-63 31 -92 32 l-42 0 -10 55 c-9 50 -8 56 11 71 15 11 19 24 16 42 -5 24 -1
26 71 45 42 11 85 20 96 21 18 0 18 -2 -5 -17z m1244 -58 c10 -31 15 -59 11
-62 -3 -3 -25 13 -48 36 l-42 43 25 19 c14 11 28 20 31 20 3 0 13 -25 23 -56z
m-2994 16 c41 -11 41 -12 24 -31 -14 -16 -31 -19 -104 -19 -66 0 -89 3 -93 14
-4 10 7 17 36 25 23 6 49 15 57 21 8 5 20 8 27 5 6 -2 30 -9 53 -15z m2772
-44 c-2 -9 -26 -48 -53 -86 -69 -94 -66 -108 31 -138 130 -41 136 -46 107 -86
-12 -16 -16 -15 -71 13 -32 17 -66 31 -75 31 -10 0 -38 14 -64 31 -38 25 -50
28 -66 19 -24 -13 -37 6 -47 69 -6 36 -4 41 13 41 28 0 34 9 22 32 -6 11 -9
22 -6 24 9 10 192 72 202 70 6 -2 9 -11 7 -20z m-2533 -18 c22 -39 7 -45 -45
-19 -44 21 -45 23 -28 36 27 21 56 14 73 -17z m-289 -45 c0 -39 9 -49 61 -71
86 -37 149 -128 149 -215 l0 -30 -47 8 c-27 5 -80 9 -118 10 -39 0 -76 4 -82
8 -7 4 -15 28 -19 53 -3 25 -17 58 -30 73 -21 25 -22 29 -8 43 18 18 20 45 6
106 l-9 42 48 0 c47 0 49 -1 49 -27z m-111 -183 c11 -5 21 -26 25 -49 3 -21 9
-46 12 -55 4 -10 -1 -18 -12 -22 -11 -4 -26 -13 -35 -21 -14 -12 -17 -7 -23
48 -11 113 -8 122 33 99z m126 -199 c19 -8 19 -8 -1 -19 -16 -8 -24 -8 -32 0
-25 25 -8 35 33 19z"/>
</g>
</svg>
